<svg id="Layer_1" enable-background="new 0 0 500 500" height="512" viewBox="0 0 500 500" width="512" xmlns="http://www.w3.org/2000/svg"><path id="XMLID_329_" d="m383.424 50.708-327.665 276.176c-1.191 1.004-2.133 2.274-2.749 3.706l-52.194 121.416c-2.651 7.811 1.351 13.994 9.187 13.994.738 0 128.119-28.942 128.119-28.942 1.554-.354 3.001-1.075 4.22-2.103l331.78-279.644c29.952-25.245 34.409-68.904 10.723-97.977-19.674-24.151-67.358-34.512-101.421-6.626zm-228.502 347.442-12.132-41.17 238.807-200.06 24.596 29.444zm188.209-287.279 25.622 30.673-239.143 200.342-39.52-17.738zm-296.012 284.101 29.676 35.497-49.816 11.353zm84.202 23.07-32.599 7.429-42.738-51.121 14.464-33.647 2.632-2.219 50.013 22.447 15.118 51.303zm329.925-278.079-39.74 33.495-63.061-75.494 37.857-31.909c21.258-17.916 54.758-17.931 73.204 4.152 16.972 20.319 13.267 51.611-8.26 69.756z"/></svg>