<svg id="Layer_1" height="512" viewBox="0 0 91 91" width="512" xmlns="http://www.w3.org/2000/svg" data-name="Layer 1"><path d="m57.14 88.42h-54.29a1.5 1.5 0 0 1 -1.5-1.5v-55.58a1.5 1.5 0 0 1 1.5-1.5h38.74a1.5 1.5 0 0 1 0 3h-37.24v52.58h51.29v-26.29a1.5 1.5 0 0 1 3 0v27.79a1.5 1.5 0 0 1 -1.5 1.5z"/><path d="m88.25 59.85h-62.25a1.52 1.52 0 0 1 -1.3-.75 1.54 1.54 0 0 1 0-1.5l31.14-53.88a1.5 1.5 0 0 1 2.6 0l31.11 53.88a1.54 1.54 0 0 1 0 1.5 1.52 1.52 0 0 1 -1.3.75zm-59.62-3h57l-28.49-49.38z"/></svg>